<?xml version="1.0" encoding="UTF-8"?>
<!DOCTYPE svg PUBLIC "-//W3C//DTD SVG 1.1//EN" "http://www.w3.org/Graphics/SVG/1.1/DTD/svg11.dtd">
<!-- Creator: CorelDRAW 2020 (64 Bit) -->
<svg xmlns="http://www.w3.org/2000/svg" xml:space="preserve" width="73.8194mm" height="74.2703mm" version="1.1" style="shape-rendering:geometricPrecision; text-rendering:geometricPrecision; image-rendering:optimizeQuality; fill-rule:evenodd; clip-rule:evenodd"
viewBox="0 0 639.82 643.73"
 xmlns:xlink="http://www.w3.org/1999/xlink"
 xmlns:xodm="http://www.corel.com/coreldraw/odm/2003">
 <defs>
  <style type="text/css">
   <![CDATA[
    .fil0 {fill:#0082D2}
    .fil1 {fill:white}
   ]]>
  </style>
 </defs>
 <g id="Camada_x0020_1">
  <metadata id="CorelCorpID_0Corel-Layer"/>
  <path class="fil0" d="M-0 519.71c0,57.69 33.49,98.08 74.25,114.42 35.47,14.22 133.08,8.43 178.57,8.43 61.93,0 123.85,0 185.78,0 66.15,0 114.82,9.12 159.53,-27.54 40.3,-33.05 45.91,-72.94 39.38,-140.95 -5.07,-52.75 -24.7,-102.5 -48.37,-139.34 -46.11,-71.75 -76.13,-95.15 -139.27,-140.52 -16.79,-12.06 -40.82,-31.29 -61.72,-31.29l-135.32 0c-22.11,0 -34.68,13.89 -50.77,23.94 -43.57,27.22 -91.08,67.87 -121.82,107.52 -44.34,57.19 -80.24,128.94 -80.24,225.33z"/>
  <path class="fil0" d="M195.09 2.65c-35.44,9.14 -1.23,48.06 8.14,62.06 50.05,74.76 15.93,57.22 143.64,57.22 64.91,0 43.36,13.7 92.78,-59.87 37.48,-55.79 34.96,-60.38 -42.32,-60.38 -34,0 -181.54,-4.37 -202.23,0.97z"/>
  <path class="fil1" d="M295.3 287.05c-13.04,8.18 -38.05,12.77 -50.66,34.09 -11.84,20.02 -12.8,43.6 -0.46,64.97 22.45,38.88 95.76,36.21 110.57,60.2 -0.86,22.63 -28.16,23.32 -47.58,18.99 -16.11,-3.59 -40.51,-16.22 -55.77,-11.55 -17.48,5.35 -21.96,31.15 -7.75,43.02 13.83,11.57 37.32,11 51.18,19.88 3.05,21.82 0.82,41.01 24.69,41.89 10.63,0.39 18.92,-5.61 22.34,-11.69 4.51,-7.99 2.17,-20 5.01,-29.45 4.33,-5.61 33.44,-5.69 50.08,-34.76 24.75,-43.23 1.06,-82.6 -51.89,-100.81 -15.56,-5.35 -59.63,-15.31 -59.45,-27.27 8.89,-22.2 44.34,-17.72 68.42,-11.61 34.3,8.7 46.76,-24.4 28.46,-42.37 -10.4,-10.22 -23.2,-5.81 -32.59,-11 -9.55,-5.28 1.09,-21.58 -10.98,-34.88 -8.05,-8.87 -22.31,-10.49 -33,-3.04 -10.89,7.59 -9.97,18.82 -10.61,35.38z"/>
 </g>
</svg>
