<?xml version="1.0" encoding="UTF-8"?>
<!DOCTYPE svg PUBLIC "-//W3C//DTD SVG 1.1//EN" "http://www.w3.org/Graphics/SVG/1.1/DTD/svg11.dtd">
<!-- Creator: CorelDRAW 2020 (64 Bit) -->
<svg xmlns="http://www.w3.org/2000/svg" xml:space="preserve" width="83.493mm" height="74.1726mm" version="1.1" style="shape-rendering:geometricPrecision; text-rendering:geometricPrecision; image-rendering:optimizeQuality; fill-rule:evenodd; clip-rule:evenodd"
viewBox="0 0 1132.87 1006.41"
 xmlns:xlink="http://www.w3.org/1999/xlink"
 xmlns:xodm="http://www.corel.com/coreldraw/odm/2003">
 <defs>
  <style type="text/css">
   <![CDATA[
    .fil0 {fill:#1E3050}
    .fil1 {fill:white}
   ]]>
  </style>
 </defs>
 <g id="Camada_x0020_1">
  <metadata id="CorelCorpID_0Corel-Layer"/>
  <path class="fil0" d="M644.58 1003.12c-16.71,-21.45 -63.36,-41.81 -106.95,-130.02 -56.3,-113.94 -40.69,-270.14 42.43,-365.73 10.59,-12.18 14.44,-19.2 26.54,-30.95 27.75,-26.96 69.18,-55.04 108.52,-71.01 11.08,-4.5 34.3,-7.9 39.02,-18.13 3.72,-8.06 1.62,-161.77 1.62,-177.83 0,-88.85 4.88,-142.78 -52.75,-183.83 -49.34,-35.15 -145.38,-23.91 -212.58,-23.91 -78.99,0 -157.98,0 -236.97,0 -75.72,0 -157.44,-11.61 -205.91,30.54 -54.99,47.82 -44.45,103.39 -44.45,191.57 0,157.98 0,315.96 0,473.94 0,128.11 -24.3,238.76 63.36,291.12 32.5,19.42 63.05,16.07 104.43,16.07 62.46,-0 446.62,4.28 473.7,-1.83z"/>
  <path class="fil0" d="M813.23 444.87c-91.71,16.51 -138.12,49.6 -181.39,99.97 -98.03,114.1 -78.6,303.9 38.66,396.5 52.99,41.85 128.74,75.41 221.57,61.47 139.59,-20.97 260.56,-148.9 238.1,-316.8 -21.22,-158.67 -173.76,-266.91 -316.94,-241.13z"/>
  <path class="fil1" d="M146.18 255.14c-15.2,7.83 -25.79,27.11 -14.09,46.91 10.3,17.43 32.44,14.12 56.72,14.04 64.25,-0.22 409.55,3.06 423.72,-2.62 13.26,-5.32 25.51,-26.05 14.27,-46.59 -9.51,-17.39 -32.83,-14.96 -57.38,-14.85 -62.45,0.27 -411.13,-3.12 -423.25,3.12z"/>
  <path class="fil1" d="M150.15 442.04c-34.62,11.63 -28.25,55.6 3.1,61.48 21.21,3.98 324.52,1.16 332.11,-1.39 27.74,-9.3 28.55,-56.24 -6.61,-61.26 -25.17,-3.6 -323.9,-0.4 -328.6,1.17z"/>
  <path class="fil1" d="M819.86 753.86c-28.76,-19.52 -54.17,-57.87 -74.85,-60.72 -20.13,-2.77 -36.93,11.71 -35.57,33.01 1.57,24.48 91.75,103.49 99.36,105.81 23.27,7.07 31.52,-7.66 43.63,-19.92 18.06,-18.28 133.19,-128.21 137.4,-139.15 7.73,-20.07 -5.6,-37.31 -20.31,-41.63 -33.38,-9.82 -102.95,82.89 -149.66,122.61z"/>
  <path class="fil1" d="M146.64 632.54c-20.69,9.94 -27.82,36.23 -9.43,52.34 13.71,12.01 47.57,7.51 69.57,7.5 24.79,-0 140.36,2.6 154.06,-2.32 19.93,-7.16 26,-36.36 9.83,-52.07 -13.4,-13.02 -48.57,-8.92 -70.54,-8.92 -27.44,0.01 -137,-4.45 -153.49,3.47z"/>
 </g>
</svg>
