<?xml version="1.0" encoding="UTF-8"?>
<!DOCTYPE svg PUBLIC "-//W3C//DTD SVG 1.1//EN" "http://www.w3.org/Graphics/SVG/1.1/DTD/svg11.dtd">
<!-- Creator: CorelDRAW 2020 (64 Bit) -->
<svg xmlns="http://www.w3.org/2000/svg" xml:space="preserve" width="83.2951mm" height="73.9947mm" version="1.1" style="shape-rendering:geometricPrecision; text-rendering:geometricPrecision; image-rendering:optimizeQuality; fill-rule:evenodd; clip-rule:evenodd"
viewBox="0 0 9802.31 8707.82"
 xmlns:xlink="http://www.w3.org/1999/xlink"
 xmlns:xodm="http://www.corel.com/coreldraw/odm/2003">
 <defs>
  <style type="text/css">
   <![CDATA[
    .fil0 {fill:#1E3050}
   ]]>
  </style>
 </defs>
 <g id="Camada_x0020_1">
  <metadata id="CorelCorpID_0Corel-Layer"/>
  <path class="fil0" d="M3122.66 5462.3c-777.83,96.73 -971.6,296.68 -1436.94,666.45 -153.25,121.78 -442.8,404.33 -627.31,414.5 -343.23,18.93 -719.02,-72.56 -916.26,159.36 -190.33,223.8 -134.27,567.3 -134.27,915.88 0,350.41 -56.65,690.91 134.18,915.98 183.81,216.77 582.19,160.07 916.01,160.07 891.51,0 4854.45,37.38 5262.45,-13.36 774.15,-96.26 1401.33,-690.97 2031.13,-1149.37 208.93,-152.08 409.17,-289.85 609.8,-449.43 203.85,-162.13 401.57,-282.93 590.35,-437.21 499.3,-407.99 192.89,-1186.77 -398.33,-1199.18 -319.52,-6.7 -522.11,208.33 -708.43,341.72l-1523.32 1123.95c-108.86,82.64 -170.01,163.58 -350.03,169.57 -225.49,7.52 -1957.82,14.5 -2057.08,-24.14 -212.06,-82.54 -291.24,-530.52 216.62,-534.32 352.24,-2.65 707.98,0.06 1060.49,1.52 353.7,1.47 605.61,-45.99 707.31,-345.15 81.31,-239.19 17.41,-574.5 -290.32,-691.44 -235.36,-89.44 -2824.49,-57.95 -3086.05,-25.42z"/>
  <path class="fil0" d="M4495.36 565.77c-93.12,74.85 -258.06,115.34 -371.22,184.94 -433.46,266.61 -543.07,846.45 -303.65,1239.25 337.85,554.33 1516.6,544 1501.34,832.86 -226.37,481.27 -1135.68,-179.72 -1441.87,18.86 -211.51,137.18 -266,474.45 -65.25,649.65 149.31,130.32 548.1,154.49 655.66,279.29 75.65,91.32 -29.88,546.8 418.08,562.34 356.52,12.37 423.83,-263.56 422.64,-589.35 914.42,-190.61 1216,-1412.33 58.7,-1869.16l-660.11 -211.53c-140.03,-50.64 -147.83,-46.08 -207.6,-116.89 130.26,-440.81 945.41,3.44 1223.48,-160.01 148.24,-87.13 255.38,-337.53 141.45,-538.13 -100.42,-176.83 -327.86,-203.97 -547.22,-259.19 -29.57,-320.73 -63.05,-571.77 -403.4,-588 -396.3,-18.9 -402.93,360.28 -421.02,565.08z"/>
 </g>
</svg>
