<?xml version="1.0" encoding="UTF-8"?>
<!DOCTYPE svg PUBLIC "-//W3C//DTD SVG 1.1//EN" "http://www.w3.org/Graphics/SVG/1.1/DTD/svg11.dtd">
<!-- Creator: CorelDRAW 2020 (64 Bit) -->
<svg xmlns="http://www.w3.org/2000/svg" xml:space="preserve" width="9.0356mm" height="6.1862mm" version="1.1" style="shape-rendering:geometricPrecision; text-rendering:geometricPrecision; image-rendering:optimizeQuality; fill-rule:evenodd; clip-rule:evenodd"
viewBox="0 0 7.24 4.96"
 xmlns:xlink="http://www.w3.org/1999/xlink"
 xmlns:xodm="http://www.corel.com/coreldraw/odm/2003">
 <defs>
  <style type="text/css">
   <![CDATA[
    .fil0 {fill:white;fill-rule:nonzero}
   ]]>
  </style>
 </defs>
 <g id="Camada_x0020_1">
  <metadata id="CorelCorpID_0Corel-Layer"/>
  <g id="_2421012226160">
   <path class="fil0" d="M3.73 1.62c-0.2,0 -0.37,0 -0.54,-0 -0.02,-0 -0.06,-0.05 -0.07,-0.08 -0.06,-0.21 -0.08,-0.42 -0.16,-0.62 -0.17,-0.44 -0.51,-0.69 -0.97,-0.76 -0.22,-0.04 -0.45,-0.03 -0.68,-0.03 -0.16,0 -0.24,0.09 -0.25,0.25 -0.02,0.19 -0.02,0.38 -0.02,0.56 -0,0.2 -0,0.4 0,0.59 0,0.07 -0.02,0.1 -0.1,0.09 -0.12,-0 -0.25,-0.01 -0.37,0 -0.08,0 -0.09,-0.03 -0.09,-0.1 0,-0.29 0,-0.57 0,-0.86 -0,-0.09 -0,-0.19 -0.02,-0.28 -0.02,-0.16 -0.09,-0.22 -0.24,-0.25 -0.07,-0.01 -0.14,-0.02 -0.22,-0.03 -0,-0.03 -0,-0.07 -0.01,-0.11 0.04,-0 0.06,-0.01 0.09,-0.01 0.46,-0 0.92,0 1.38,-0 0.35,-0 0.7,0.01 1.04,0.12 0.57,0.17 0.94,0.54 1.12,1.1 0.04,0.12 0.06,0.25 0.1,0.4z"/>
   <path class="fil0" d="M3.65 2.82c-0.06,0.25 -0.18,0.47 -0.33,0.67 -0.41,0.52 -0.98,0.73 -1.62,0.74 -0.49,0.01 -0.98,-0 -1.48,-0 -0.05,-0 -0.1,0.01 -0.16,0 -0.02,-0 -0.06,-0.03 -0.06,-0.05 -0,-0.02 0.03,-0.06 0.05,-0.06 0.04,-0.01 0.09,-0.01 0.13,-0.02 0.19,-0.03 0.27,-0.1 0.29,-0.29 0.01,-0.18 0.01,-0.37 0.01,-0.55 0,-0.12 0,-0.24 -0,-0.36 -0,-0.07 0.02,-0.09 0.09,-0.09 0.13,0 0.26,0 0.39,0 0.07,-0 0.08,0.03 0.08,0.09 -0,0.23 -0,0.46 0,0.69 0,0.09 0.01,0.18 0.02,0.27 0.02,0.16 0.09,0.25 0.25,0.26 0.45,0.03 0.88,0.01 1.26,-0.28 0.26,-0.19 0.39,-0.46 0.47,-0.76 0.01,-0.03 0.01,-0.06 0.02,-0.09 0.04,-0.18 0.04,-0.18 0.23,-0.18 0.1,0 0.21,0 0.31,0 0.01,0 0.02,0.01 0.04,0.01z"/>
   <path class="fil0" d="M7.24 0.01l0 1.24c-0.13,0.04 -0.14,0.03 -0.15,-0.09 -0.02,-0.16 -0.04,-0.32 -0.08,-0.48 -0.07,-0.33 -0.27,-0.5 -0.61,-0.52 -0.25,-0.01 -0.51,-0.01 -0.76,-0 -0.22,0.01 -0.31,0.09 -0.32,0.32 -0.01,0.32 -0,0.64 -0.01,0.96 -0,0.22 0.03,0.19 -0.19,0.19 -0.08,0 -0.16,-0.01 -0.24,0 -0.1,0.01 -0.13,-0.02 -0.13,-0.12 0.01,-0.29 0,-0.58 0,-0.87 0,-0.04 -0,-0.07 -0,-0.11 -0.02,-0.3 -0.1,-0.38 -0.4,-0.39 -0.05,-0 -0.09,-0 -0.09,-0.07 0,-0.08 0.06,-0.06 0.1,-0.06 0.91,0 1.82,0 2.73,0 0.05,0 0.1,0 0.14,0z"/>
   <path class="fil0" d="M5.11 4.23c-0.25,0 -0.5,0 -0.75,-0 -0.03,-0 -0.05,-0.03 -0.08,-0.05 0.02,-0.02 0.05,-0.05 0.07,-0.07 0,-0 0.01,-0 0.01,-0 0.34,-0.04 0.4,-0.1 0.41,-0.45 0.01,-0.26 0,-0.51 0,-0.77 -0,-0.07 0.02,-0.1 0.1,-0.09 0.12,0 0.25,0 0.37,0 0.07,-0 0.1,0.02 0.1,0.09 -0,0.22 -0,0.44 -0,0.66 0,0.06 0,0.13 0.01,0.19 0.03,0.24 0.11,0.32 0.35,0.35 0.05,0.01 0.11,0.01 0.16,0.01 0.05,0 0.08,0.01 0.08,0.07 -0,0.07 -0.05,0.05 -0.09,0.05 -0.24,0 -0.49,0 -0.73,0z"/>
   <path class="fil0" d="M0.02 4.84l0.01 0c0,0.03 0.03,0.05 0.07,0.05 0.04,0 0.06,-0.02 0.06,-0.04 0,-0.03 -0.03,-0.04 -0.06,-0.05 -0.03,-0.01 -0.07,-0.03 -0.07,-0.07 0,-0.04 0.03,-0.06 0.08,-0.06 0.04,0 0.07,0.02 0.07,0.06l-0.01 0c0,-0.03 -0.03,-0.05 -0.06,-0.05 -0.03,0 -0.06,0.02 -0.06,0.04 0,0.03 0.03,0.04 0.06,0.05 0.04,0.01 0.07,0.03 0.07,0.07 0,0.04 -0.03,0.06 -0.08,0.06 -0.05,0 -0.08,-0.03 -0.08,-0.06z"/>
   <polygon class="fil0" points="0.5,4.89 0.5,4.89 0.34,4.89 0.34,4.67 0.49,4.67 0.49,4.68 0.37,4.68 0.37,4.78 0.47,4.78 0.47,4.78 0.37,4.78 0.37,4.89 "/>
   <path class="fil0" d="M0.68 4.79l0.05 0c0.03,0 0.06,-0.02 0.06,-0.06 0,-0.03 -0.02,-0.06 -0.06,-0.06l-0.05 0 0 0.11zm0.16 0.1l-0.03 0c-0.01,-0.01 -0.01,-0.01 -0.02,-0.02l-0.03 -0.06c-0,-0.01 -0.01,-0.01 -0.02,-0.02l-0.05 0 0 0.1 -0.03 0 0 -0.22 0.09 0c0.05,0 0.08,0.03 0.08,0.06 0,0.03 -0.03,0.06 -0.07,0.06 0.02,0 0.03,0.01 0.03,0.02l0.03 0.05c0.01,0.01 0.01,0.02 0.02,0.02z"/>
   <polygon class="fil0" points="1.16,4.67 1.06,4.89 1.05,4.89 0.95,4.67 0.98,4.67 1.06,4.86 1.15,4.67 "/>
   <polygon class="fil0" points="1.3,4.67 1.33,4.67 1.33,4.89 1.3,4.89 "/>
   <path class="fil0" d="M1.64 4.89c-0.01,0.01 -0.03,0.01 -0.06,0.01l-0.01 0.01c0.01,0 0.02,0.01 0.02,0.02 0,0.02 -0.02,0.03 -0.03,0.03 -0.01,0 -0.02,-0 -0.02,-0.01l0 -0.01c0,0 0.01,0 0.02,0 0.01,0 0.01,-0 0.01,-0.01 0,-0.01 -0.01,-0.01 -0.02,-0.01l0.01 -0.02c-0.05,-0.01 -0.09,-0.04 -0.09,-0.11 0,-0.07 0.05,-0.11 0.11,-0.11 0.03,0 0.04,0.01 0.05,0.01l-0.01 0.02c-0.01,-0.01 -0.03,-0.01 -0.04,-0.01 -0.05,0 -0.08,0.03 -0.08,0.09 0,0.05 0.03,0.09 0.08,0.09 0.02,0 0.03,-0 0.05,-0.01l0.01 0.02z"/>
   <path class="fil0" d="M1.98 4.78c0,-0.07 -0.03,-0.11 -0.09,-0.11 -0.05,0 -0.09,0.04 -0.09,0.11 0,0.07 0.03,0.11 0.09,0.11 0.05,0 0.09,-0.04 0.09,-0.11zm-0.2 0c0,-0.07 0.05,-0.11 0.12,-0.11 0.07,0 0.12,0.05 0.12,0.11 0,0.07 -0.05,0.11 -0.12,0.11 -0.07,0 -0.12,-0.05 -0.12,-0.11z"/>
   <path class="fil0" d="M2.15 4.84l0.01 0c0,0.03 0.03,0.05 0.07,0.05 0.04,0 0.06,-0.02 0.06,-0.04 0,-0.03 -0.03,-0.04 -0.06,-0.05 -0.03,-0.01 -0.07,-0.03 -0.07,-0.07 0,-0.04 0.03,-0.06 0.08,-0.06 0.04,0 0.07,0.02 0.07,0.06l-0.01 0c0,-0.03 -0.03,-0.05 -0.06,-0.05 -0.03,0 -0.06,0.02 -0.06,0.04 0,0.03 0.03,0.04 0.06,0.05 0.04,0.01 0.07,0.03 0.07,0.07 0,0.04 -0.03,0.06 -0.08,0.06 -0.05,0 -0.08,-0.03 -0.08,-0.06z"/>
   <polygon class="fil0" points="2.69,4.68 2.69,4.78 2.78,4.78 2.78,4.79 2.69,4.79 2.69,4.89 2.66,4.89 2.66,4.67 2.81,4.67 2.81,4.68 "/>
   <polygon class="fil0" points="2.96,4.67 2.99,4.67 2.99,4.89 2.96,4.89 "/>
   <polygon class="fil0" points="3.34,4.67 3.34,4.89 3.33,4.89 3.16,4.69 3.16,4.89 3.16,4.89 3.16,4.67 3.18,4.67 3.33,4.86 3.33,4.67 "/>
   <path class="fil0" d="M3.63 4.82l-0.05 -0.12 -0.05 0.12 0.11 0zm0 0.01l-0.11 0 -0.03 0.07 -0.01 0 0.1 -0.22 0.01 0 0.1 0.22 -0.03 0 -0.03 -0.07z"/>
   <polygon class="fil0" points="4.03,4.67 4.03,4.89 4.02,4.89 3.85,4.69 3.85,4.89 3.84,4.89 3.84,4.67 3.87,4.67 4.02,4.86 4.02,4.67 "/>
   <path class="fil0" d="M4.18 4.78c0,-0.06 0.05,-0.11 0.12,-0.11 0.05,0 0.09,0.03 0.09,0.06l-0.01 0c0,-0.03 -0.03,-0.05 -0.07,-0.05 -0.06,0 -0.09,0.04 -0.09,0.11 0,0.07 0.04,0.11 0.09,0.11 0.03,0 0.06,-0.02 0.08,-0.04l0.01 0c-0.01,0.03 -0.05,0.05 -0.09,0.05 -0.07,0 -0.12,-0.05 -0.12,-0.11z"/>
   <polygon class="fil0" points="4.7,4.89 4.7,4.89 4.54,4.89 4.54,4.67 4.7,4.67 4.7,4.68 4.57,4.68 4.57,4.78 4.67,4.78 4.67,4.78 4.57,4.78 4.57,4.89 "/>
   <polygon class="fil0" points="4.85,4.67 4.88,4.67 4.88,4.89 4.85,4.89 "/>
   <path class="fil0" d="M5.08 4.79l0.05 0c0.03,0 0.06,-0.02 0.06,-0.06 0,-0.03 -0.02,-0.06 -0.06,-0.06l-0.05 0 0 0.11zm0.16 0.1l-0.03 0c-0.01,-0.01 -0.01,-0.01 -0.02,-0.02l-0.03 -0.06c-0,-0.01 -0.01,-0.01 -0.02,-0.02l-0.05 0 0 0.1 -0.03 0 0 -0.22 0.09 0c0.05,0 0.08,0.03 0.08,0.06 0,0.03 -0.03,0.06 -0.07,0.06 0.02,0 0.03,0.01 0.03,0.02l0.03 0.05c0.01,0.01 0.01,0.02 0.02,0.02z"/>
   <path class="fil0" d="M5.56 4.78c0,-0.07 -0.03,-0.11 -0.09,-0.11 -0.05,0 -0.09,0.04 -0.09,0.11 0,0.07 0.03,0.11 0.09,0.11 0.05,0 0.09,-0.04 0.09,-0.11zm-0.2 0c0,-0.07 0.05,-0.11 0.12,-0.11 0.07,0 0.12,0.05 0.12,0.11 0,0.07 -0.05,0.11 -0.12,0.11 -0.07,0 -0.12,-0.05 -0.12,-0.11z"/>
   <path class="fil0" d="M5.73 4.84l0.01 0c0,0.03 0.03,0.05 0.07,0.05 0.04,0 0.06,-0.02 0.06,-0.04 0,-0.03 -0.03,-0.04 -0.06,-0.05 -0.03,-0.01 -0.07,-0.03 -0.07,-0.07 0,-0.04 0.03,-0.06 0.08,-0.06 0.04,0 0.07,0.02 0.07,0.06l-0.01 0c0,-0.03 -0.03,-0.05 -0.06,-0.05 -0.03,0 -0.06,0.02 -0.06,0.04 0,0.03 0.03,0.04 0.06,0.05 0.04,0.01 0.07,0.03 0.07,0.07 0,0.04 -0.03,0.06 -0.08,0.06 -0.05,0 -0.08,-0.03 -0.08,-0.06z"/>
   <path class="fil0" d="M0.77 2.19c0,-0.2 -0.12,-0.33 -0.29,-0.33l-0.16 0 0 0.66 0.16 0c0.18,0 0.29,-0.13 0.29,-0.33zm0.09 0c0,0.2 -0.16,0.35 -0.37,0.35l-0.26 0 0 -0.7 0.26 0c0.21,0 0.37,0.15 0.37,0.35z"/>
   <path class="fil0" d="M1.07 2.26l0.31 0c-0,-0.12 -0.06,-0.2 -0.15,-0.2 -0.09,0 -0.15,0.08 -0.16,0.2zm0.36 0.19l0.02 0c-0.03,0.06 -0.11,0.1 -0.2,0.1 -0.16,0 -0.27,-0.11 -0.27,-0.26 0,-0.15 0.11,-0.26 0.26,-0.26 0.14,0 0.24,0.11 0.24,0.24l-0.4 0 0 0.01c0,0.15 0.08,0.24 0.2,0.24 0.07,0 0.13,-0.03 0.16,-0.08z"/>
   <polygon class="fil0" points="1.96,1.87 1.96,2.19 2.27,2.19 2.27,2.21 1.96,2.21 1.96,2.54 1.88,2.54 1.88,1.85 2.35,1.85 2.35,1.87 "/>
   <path class="fil0" d="M2.46 2.06l0.09 -0.02 0 0.5 -0.09 0 0 -0.48zm-0.01 -0.16c0,-0.03 0.02,-0.05 0.06,-0.05 0.03,0 0.05,0.02 0.05,0.05 0,0.03 -0.02,0.05 -0.05,0.05 -0.03,0 -0.06,-0.02 -0.06,-0.05z"/>
   <path class="fil0" d="M3.09 2.43l0 -0.27c-0.03,-0.06 -0.09,-0.1 -0.15,-0.1 -0.1,0 -0.16,0.09 -0.16,0.23 0,0.14 0.07,0.23 0.17,0.23 0.06,0 0.12,-0.04 0.15,-0.09zm0.09 -0.39l0 0.54c0,0.11 -0.1,0.19 -0.24,0.19 -0.12,0 -0.21,-0.06 -0.21,-0.15l0.02 0c0,0.07 0.08,0.13 0.17,0.13 0.1,0 0.17,-0.06 0.17,-0.15l0 -0.13c-0.04,0.05 -0.1,0.08 -0.17,0.08 -0.13,0 -0.24,-0.11 -0.24,-0.26 0,-0.15 0.11,-0.26 0.23,-0.26 0.07,0 0.14,0.03 0.17,0.09l0 -0.06 0.09 -0.02z"/>
   <path class="fil0" d="M3.78 2.04l0 0.5 -0.09 0 0 -0.09c-0.03,0.06 -0.11,0.1 -0.18,0.1 -0.1,0 -0.18,-0.07 -0.18,-0.17l0 -0.32 0.09 -0.02 0 0.36c0,0.06 0.05,0.11 0.12,0.11 0.06,0 0.13,-0.04 0.16,-0.11l0 -0.35 0.09 -0.02z"/>
   <path class="fil0" d="M4.01 2.26l0.31 0c-0,-0.12 -0.06,-0.2 -0.15,-0.2 -0.09,0 -0.15,0.08 -0.16,0.2zm0.36 0.19l0.02 0c-0.03,0.06 -0.11,0.1 -0.2,0.1 -0.16,0 -0.27,-0.11 -0.27,-0.26 0,-0.15 0.11,-0.26 0.26,-0.26 0.14,0 0.24,0.11 0.24,0.24l-0.4 0 0 0.01c0,0.15 0.08,0.24 0.2,0.24 0.07,0 0.13,-0.03 0.16,-0.08z"/>
   <path class="fil0" d="M4.54 2.06l0.09 -0.02 0 0.5 -0.09 0 0 -0.48zm-0.01 -0.16c0,-0.03 0.02,-0.05 0.06,-0.05 0.03,0 0.05,0.02 0.05,0.05 0,0.03 -0.02,0.05 -0.05,0.05 -0.03,0 -0.06,-0.02 -0.06,-0.05z"/>
   <path class="fil0" d="M5.15 2.14l-0.02 0c0,-0.05 -0.04,-0.09 -0.09,-0.09 -0.07,0 -0.13,0.05 -0.15,0.12l0 0.36 -0.09 0 0 -0.48 0.09 -0.02 0 0.1c0.03,-0.06 0.08,-0.1 0.15,-0.1 0.07,0 0.11,0.05 0.11,0.11z"/>
   <path class="fil0" d="M5.3 2.26l0.31 0c-0,-0.12 -0.06,-0.2 -0.15,-0.2 -0.09,0 -0.15,0.08 -0.16,0.2zm0.36 0.19l0.02 0c-0.03,0.06 -0.11,0.1 -0.2,0.1 -0.16,0 -0.27,-0.11 -0.27,-0.26 0,-0.15 0.11,-0.26 0.26,-0.26 0.14,0 0.24,0.11 0.24,0.24l-0.4 0 0 0.01c0,0.15 0.08,0.24 0.2,0.24 0.07,0 0.13,-0.03 0.16,-0.08z"/>
   <path class="fil0" d="M6.21 2.43l0 -0.27c-0.03,-0.06 -0.09,-0.1 -0.15,-0.1 -0.1,0 -0.16,0.09 -0.16,0.23 0,0.14 0.07,0.23 0.17,0.23 0.06,0 0.12,-0.04 0.15,-0.09zm0.09 -0.61l0 0.73 -0.09 0 0 -0.07c-0.04,0.05 -0.1,0.08 -0.17,0.08 -0.13,0 -0.24,-0.11 -0.24,-0.26 0,-0.15 0.11,-0.26 0.23,-0.26 0.07,0 0.14,0.03 0.17,0.09l0 -0.29 0.09 -0.02z"/>
   <path class="fil0" d="M6.87 2.29c0,-0.15 -0.07,-0.24 -0.17,-0.24 -0.1,0 -0.17,0.09 -0.17,0.24 0,0.15 0.07,0.24 0.17,0.24 0.1,0 0.17,-0.09 0.17,-0.24zm-0.43 0c0,-0.15 0.11,-0.26 0.26,-0.26 0.15,0 0.26,0.11 0.26,0.26 0,0.15 -0.11,0.26 -0.26,0.26 -0.15,0 -0.26,-0.11 -0.26,-0.26z"/>
  </g>
 </g>
</svg>
